<?xml version="1.0" encoding="UTF-8" standalone="no"?>
<!DOCTYPE svg PUBLIC "-//W3C//DTD SVG 20010904//EN"
              "http://www.w3.org/TR/2001/REC-SVG-20010904/DTD/svg10.dtd">

<svg xmlns="http://www.w3.org/2000/svg"
     width="14.2222in" height="10.6667in"
     viewBox="0 0 1024 768">
  <path id="sample"
        fill="none" stroke="black" stroke-width="1"
        d="M 0.00,660.00
           C 0.00,660.00 82.00,664.00 82.00,664.00
             82.00,664.00 187.00,707.00 187.00,707.00
             187.00,707.00 331.00,707.00 331.00,707.00
             331.00,707.00 336.00,596.00 336.00,596.00
             336.00,596.00 501.00,593.00 501.00,593.00
             501.00,593.00 508.00,665.00 508.00,665.00
             508.00,665.00 766.00,662.00 766.00,662.00
             766.00,662.00 825.00,580.00 825.00,580.00
             825.00,580.00 913.00,514.00 913.00,514.00
             913.00,514.00 1024.00,510.00 1024.00,510.00" />
</svg>
